<svg width="456" height="456" viewBox="0 0 456 456" fill="none" xmlns="http://www.w3.org/2000/svg">
    <path d="M227.78 0C102.18 0 0 102.18 0 227.78C0 353.379 102.18 455.559 227.78 455.559C353.379 455.559 455.559 353.379 455.559 227.78C455.559 102.18 353.379 0 227.78 0ZM227.78 449.604C105.465 449.604 5.96217 350.094 5.96217 227.78C5.96217 105.465 105.472 5.96217 227.78 5.96217C350.087 5.96217 449.604 105.472 449.604 227.78C449.604 350.087 350.094 449.604 227.78 449.604Z" fill="#F0252D"/>
    <path d="M227.78 16.4404C111.248 16.4404 16.4478 111.24 16.4478 227.772C16.4478 344.304 111.248 439.111 227.78 439.111C344.312 439.111 439.111 344.304 439.111 227.772C439.111 111.24 344.312 16.4404 227.78 16.4404ZM212.452 421.058C178.823 394.83 157.755 355.046 155.286 312.183C155.12 309.306 157.285 306.788 160.162 306.636C180.421 305.55 200.258 300.515 218.47 291.855C224.349 289.054 231.21 289.054 237.089 291.855C255.308 300.522 275.138 305.557 295.39 306.636C298.267 306.788 300.432 309.306 300.266 312.183C297.797 355.039 276.722 394.824 243.107 421.058C234.095 428.093 221.465 428.093 212.445 421.058H212.452ZM243.114 34.4929C278.133 61.8207 299.533 103.846 300.481 148.736C278.465 149.192 256.823 154.324 237.096 163.717C231.21 166.518 224.356 166.518 218.47 163.717C198.723 154.324 177.087 149.192 155.072 148.736C156.019 103.839 177.426 61.8207 212.445 34.4929C221.465 27.4587 234.095 27.4587 243.107 34.4929H243.114ZM238.487 221.568L259.195 200.859C265.69 207.638 271.548 215.032 276.68 222.944C278.589 225.884 278.589 229.681 276.68 232.621C271.555 240.533 265.69 247.927 259.188 254.706L238.494 234.011C235.056 230.573 235.056 225.006 238.494 221.568H238.487ZM255.149 188.14C251.082 184.502 246.821 181.071 242.388 177.868C238.708 175.212 239.372 169.562 243.522 167.729C258.088 161.282 273.665 157.222 289.601 155.714C291.745 155.514 292.976 158.115 291.454 159.636L263.193 187.898C261 190.09 257.466 190.215 255.156 188.147L255.149 188.14ZM254.713 196.378L234.005 217.086C230.567 220.524 224.999 220.524 221.562 217.086L200.846 196.371C207.631 189.869 215.025 184.01 222.945 178.885C225.884 176.976 229.675 176.983 232.621 178.885C240.534 184.017 247.935 189.883 254.713 196.384V196.378ZM196.371 254.713C189.869 247.927 184.004 240.533 178.872 232.621C176.963 229.681 176.963 225.884 178.872 222.944C184.004 215.025 189.862 207.631 196.364 200.853L217.08 221.568C220.517 225.006 220.517 230.573 217.08 234.011L196.371 254.72V254.713ZM192.366 187.884L164.119 159.636C162.597 158.115 163.821 155.507 165.972 155.714C181.894 157.229 197.464 161.289 212.03 167.729C216.18 169.562 216.844 175.219 213.165 177.875C208.731 181.071 204.477 184.502 200.41 188.14C198.1 190.208 194.566 190.083 192.373 187.891L192.366 187.884ZM188.126 200.41C184.488 204.477 181.058 208.731 177.855 213.171C175.199 216.851 169.548 216.187 167.715 212.037C161.276 197.47 157.223 181.901 155.708 165.979C155.507 163.835 158.108 162.603 159.63 164.125L187.877 192.373C190.07 194.565 190.194 198.1 188.126 200.41ZM177.862 242.394C181.064 246.828 184.495 251.088 188.14 255.155C190.208 257.465 190.091 261 187.891 263.192L159.63 291.454C158.108 292.976 155.507 291.751 155.708 289.6C157.223 273.671 161.276 258.095 167.722 243.521C169.555 239.371 175.206 238.707 177.862 242.387V242.394ZM200.417 267.432C204.484 271.071 208.738 274.501 213.172 277.697C216.851 280.353 216.187 286.004 212.037 287.837C197.471 294.276 181.908 298.329 165.986 299.844C163.842 300.051 162.611 297.444 164.132 295.922L192.373 267.674C194.566 265.482 198.1 265.357 200.41 267.425L200.417 267.432ZM200.853 259.202L221.562 238.493C224.999 235.055 230.567 235.055 234.005 238.493L254.706 259.195C247.928 265.696 240.534 271.555 232.621 276.687C229.682 278.596 225.884 278.596 222.938 276.687C215.025 271.562 207.631 265.696 200.853 259.202ZM263.186 267.674L291.441 295.929C292.962 297.451 291.738 300.051 289.587 299.851C273.665 298.336 258.095 294.276 243.529 287.837C239.379 286.004 238.715 280.353 242.395 277.697C246.828 274.494 251.082 271.064 255.149 267.425C257.459 265.357 260.993 265.475 263.186 267.674ZM263.67 259.195C268.719 253.931 273.409 248.322 277.683 242.394C280.339 238.714 285.99 239.378 287.823 243.528C294.263 258.095 298.33 273.664 299.837 289.593C300.038 291.738 297.437 292.969 295.916 291.447L263.663 259.195H263.67ZM277.683 213.171C274.488 208.738 271.064 204.484 267.426 200.424C265.358 198.114 265.482 194.579 267.675 192.387L295.916 164.146C297.437 162.624 300.045 163.855 299.837 165.999C298.323 181.915 294.263 197.477 287.823 212.044C285.99 216.194 280.339 216.858 277.683 213.178V213.171ZM163.704 237.096C155.037 255.314 150.002 275.144 148.923 295.396C148.771 298.274 146.253 300.439 143.376 300.273C100.52 297.803 60.7352 276.728 34.5003 243.113C27.4661 234.101 27.4661 221.471 34.5003 212.452C60.7283 178.823 100.513 157.755 143.376 155.286C146.253 155.12 148.771 157.284 148.923 160.162C150.009 180.421 155.044 200.258 163.704 218.469C166.505 224.348 166.505 231.21 163.704 237.089V237.096ZM291.842 218.469C300.508 200.244 305.551 180.414 306.637 160.162C306.789 157.284 309.306 155.12 312.184 155.286C355.046 157.755 394.838 178.823 421.073 212.452C428.107 221.471 428.107 234.101 421.073 243.113C394.831 276.735 355.046 297.803 312.191 300.273C309.313 300.439 306.803 298.274 306.643 295.396C305.558 275.138 300.522 255.307 291.856 237.096C289.054 231.21 289.054 224.355 291.856 218.469H291.842ZM311.174 148.888L366.452 93.6166C371.155 88.9133 378.853 89.2176 383.19 94.2598C411.97 127.709 430.168 170.509 432.52 217.425C405.261 176.845 360.061 151.267 311.181 148.888H311.174ZM305.744 133.422C300.363 88.8164 275.678 48.2709 238.141 23.0458C285.063 25.3906 327.871 43.5953 361.32 72.3893C366.355 76.7261 366.659 84.4313 361.963 89.1277L314.605 136.486C311.527 139.564 306.263 137.745 305.744 133.429V133.422ZM140.948 136.472L92.13 87.6544C88.2912 83.8157 88.4157 77.4938 92.4896 73.911C126.188 44.2454 169.673 25.439 217.412 23.0528C179.889 48.2571 155.196 88.8026 149.808 133.422C149.289 137.738 144.026 139.557 140.948 136.479V136.472ZM144.392 148.888C95.5122 151.26 50.3118 176.838 23.0463 217.432C25.4326 169.693 44.2321 126.208 73.8976 92.503C77.4874 88.4291 83.8023 88.3046 87.6411 92.1433L144.385 148.888H144.392ZM144.406 306.678L89.7783 361.305C84.7292 366.355 76.4222 366.05 71.7811 360.614C43.3398 327.268 25.3772 284.731 23.0394 238.14C50.3118 278.727 95.5261 304.305 144.399 306.671L144.406 306.678ZM148.881 311.173C151.261 360.067 176.845 405.275 217.425 432.512C170.835 430.182 128.304 412.219 94.9589 383.785C89.5224 379.15 89.2181 370.843 94.2672 365.787L148.881 311.173ZM306.671 311.16L361.79 366.278C366.576 371.065 366.272 378.915 361.14 383.328C327.712 412.032 284.974 430.175 238.134 432.512C278.721 405.24 304.299 360.033 306.671 311.16ZM311.153 306.678C360.026 304.305 405.227 278.734 432.513 238.147C430.168 284.987 412.026 327.725 383.322 361.146C378.909 366.278 371.058 366.583 366.272 361.796L311.153 306.678Z" fill="#F0252D"/>
</svg>
